# File produced by Open Asset Import Library (http://www.assimp.sf.net)
# (assimp v3.0.1262)

mtllib laptop.dae.obj.mtl

# 204 vertex positions
v  37.4 -16.2 -34.12
v  37.4 -16.2 -17.9905
v  11 -16.2 -17.9905
v  11 -16.2 -17.9905
v  36.52 -16.2 -35
v  37.4 -16.2 -34.12
v  11 -16.2 -17.9905
v  11.88 -16.2 -35
v  36.52 -16.2 -35
v  11 -16.2 -17.9905
v  11 -16.2 -34.12
v  11.88 -16.2 -35
v  37.4 -16.2 -34.12
v  36.52 -16.2 -35
v  36.52 -14.88 -35
v  36.52 -14.88 -35
v  37.4 -14.88 -34.12
v  37.4 -16.2 -34.12
v  11.88 -16.2 -35
v  11 -16.2 -34.12
v  11 -14.88 -34.12
v  11 -14.88 -34.12
v  11.88 -14.88 -35
v  11.88 -16.2 -35
v  36.52 -16.2 -35
v  11.88 -16.2 -35
v  11.88 -14.88 -35
v  11.88 -14.88 -35
v  36.52 -14.88 -35
v  36.52 -16.2 -35
v  37.4 -1.36135 -11.3528
v  37.4 -0.822351 -12.5578
v  36.52 -0.0190601 -12.1984
v  36.52 -0.0190601 -12.1984
v  36.52 -0.558062 -10.9935
v  37.4 -1.36135 -11.3528
v  12.7735 -13.2611 -18.1219
v  37.4 -14.88 -18.8461
v  11 -14.88 -18.8461
v  11 -14.88 -18.8461
v  11 -0.822351 -12.5578
v  12.7735 -13.2611 -18.1219
v  11 -0.822351 -12.5578
v  12.7735 -1.63797 -12.9226
v  12.7735 -13.2611 -18.1219
v  11 -0.822351 -12.5578
v  35.6265 -1.63797 -12.9226
v  12.7735 -1.63797 -12.9226
v  37.4 -14.88 -18.8461
v  12.7735 -13.2611 -18.1219
v  35.6265 -13.2611 -18.1219
v  35.6265 -13.2611 -18.1219
v  37.4 -0.822351 -12.5578
v  37.4 -14.88 -18.8461
v  35.6265 -13.2611 -18.1219
v  35.6265 -1.63797 -12.9226
v  37.4 -0.822351 -12.5578
v  35.6265 -1.63797 -12.9226
v  11 -0.822351 -12.5578
v  37.4 -0.822351 -12.5578
v  11 -0.822351 -12.5578
v  11.88 -0.0190601 -12.1984
v  37.4 -0.822351 -12.5578
v  11.88 -0.0190601 -12.1984
v  36.52 -0.0190601 -12.1984
v  37.4 -0.822351 -12.5578
v  37.4 -16.2 -34.12
v  37.4 -14.88 -34.12
v  37.4 -14.88 -18.8461
v  37.4 -14.88 -18.8461
v  37.4 -16.2 -17.9905
v  37.4 -16.2 -34.12
v  37.4 -14.88 -18.8461
v  37.4 -0.822351 -12.5578
v  37.4 -16.2 -17.9905
v  37.4 -0.822351 -12.5578
v  37.4 -1.36135 -11.3528
v  37.4 -16.2 -17.9905
v  11.88 -0.0190601 -12.1984
v  11 -0.822351 -12.5578
v  11 -1.36135 -11.3528
v  11 -1.36135 -11.3528
v  11.88 -0.558062 -10.9935
v  11.88 -0.0190601 -12.1984
v  36.52 -0.558062 -10.9935
v  36.52 -0.0190601 -12.1984
v  11.88 -0.0190601 -12.1984
v  11.88 -0.0190601 -12.1984
v  11.88 -0.558062 -10.9935
v  36.52 -0.558062 -10.9935
v  11 -16.2 -17.9905
v  37.4 -16.2 -17.9905
v  37.4 -1.36135 -11.3528
v  37.4 -1.36135 -11.3528
v  11 -1.36135 -11.3528
v  11 -16.2 -17.9905
v  37.4 -1.36135 -11.3528
v  36.52 -0.558062 -10.9935
v  11 -1.36135 -11.3528
v  36.52 -0.558062 -10.9935
v  11.88 -0.558062 -10.9935
v  11 -1.36135 -11.3528
v  29.4112 -14.88 -33.1009
v  34.834 -14.88 -28.1742
v  36.52 -14.88 -35
v  36.52 -14.88 -35
v  11.88 -14.88 -35
v  29.4112 -14.88 -33.1009
v  11.88 -14.88 -35
v  24.5713 -14.88 -33.1009
v  29.4112 -14.88 -33.1009
v  11.88 -14.88 -35
v  24.5713 -14.88 -30.4541
v  24.5713 -14.88 -33.1009
v  11.88 -14.88 -35
v  19.6599 -14.88 -28.1742
v  24.5713 -14.88 -30.4541
v  11.88 -14.88 -35
v  18.3601 -14.88 -28.1742
v  19.6599 -14.88 -28.1742
v  18.3601 -14.88 -28.1742
v  19.6599 -14.88 -21.1654
v  19.6599 -14.88 -28.1742
v  11.88 -14.88 -35
v  13.1689 -14.88 -28.1742
v  18.3601 -14.88 -28.1742
v  11.88 -14.88 -35
v  13.1689 -14.88 -21.1654
v  13.1689 -14.88 -28.1742
v  36.52 -14.88 -35
v  34.834 -14.88 -28.1742
v  34.834 -14.88 -21.1654
v  36.52 -14.88 -35
v  34.834 -14.88 -21.1654
v  37.4 -14.88 -18.8461
v  37.4 -14.88 -18.8461
v  37.4 -14.88 -34.12
v  36.52 -14.88 -35
v  34.834 -14.88 -21.1654
v  11 -14.88 -18.8461
v  37.4 -14.88 -18.8461
v  34.834 -14.88 -21.1654
v  19.6599 -14.88 -21.1654
v  11 -14.88 -18.8461
v  13.1689 -14.88 -21.1654
v  11.88 -14.88 -35
v  11 -14.88 -18.8461
v  19.6599 -14.88 -21.1654
v  18.3601 -14.88 -21.1654
v  11 -14.88 -18.8461
v  19.6599 -14.88 -21.1654
v  18.3601 -14.88 -28.1742
v  18.3601 -14.88 -21.1654
v  18.3601 -14.88 -21.1654
v  13.1689 -14.88 -21.1654
v  11 -14.88 -18.8461
v  11.88 -14.88 -35
v  11 -14.88 -34.12
v  11 -14.88 -18.8461
v  29.4112 -14.88 -30.4541
v  24.5713 -14.88 -30.4541
v  19.6599 -14.88 -28.1742
v  29.4112 -14.88 -30.4541
v  19.6599 -14.88 -28.1742
v  34.834 -14.88 -28.1742
v  34.834 -14.88 -28.1742
v  29.4112 -14.88 -33.1009
v  29.4112 -14.88 -30.4541
v  11 -14.88 -34.12
v  11 -16.2 -34.12
v  11 -16.2 -17.9905
v  11 -16.2 -17.9905
v  11 -14.88 -18.8461
v  11 -14.88 -34.12
v  11 -16.2 -17.9905
v  11 -0.822351 -12.5578
v  11 -14.88 -18.8461
v  11 -16.2 -17.9905
v  11 -1.36135 -11.3528
v  11 -0.822351 -12.5578
v  35.6265 -13.2611 -18.1219
v  12.7735 -13.2611 -18.1219
v  12.7735 -1.63797 -12.9226
v  12.7735 -1.63797 -12.9226
v  35.6265 -1.63797 -12.9226
v  35.6265 -13.2611 -18.1219
v  29.4112 -14.88 -30.4541
v  29.4112 -14.88 -33.1009
v  24.5713 -14.88 -33.1009
v  24.5713 -14.88 -33.1009
v  24.5713 -14.88 -30.4541
v  29.4112 -14.88 -30.4541
v  34.834 -14.88 -21.1654
v  34.834 -14.88 -28.1742
v  19.6599 -14.88 -28.1742
v  19.6599 -14.88 -28.1742
v  19.6599 -14.88 -21.1654
v  34.834 -14.88 -21.1654
v  18.3601 -14.88 -21.1654
v  18.3601 -14.88 -28.1742
v  13.1689 -14.88 -28.1742
v  13.1689 -14.88 -28.1742
v  13.1689 -14.88 -21.1654
v  18.3601 -14.88 -21.1654

# 204 UV coordinates
vt 0 0.787402 0
vt 0 15.2197 0
vt -23.622 15.2197 0
vt -23.622 15.2197 0
vt -0.787402 0 0
vt 0 0.787402 0
vt -23.622 15.2197 0
vt -22.8347 0 0
vt -0.787402 0 0
vt -23.622 15.2197 0
vt -23.622 0.787402 0
vt -22.8347 0 0
vt -0.556777 9.97401e-29 0
vt 0.556777 9.97401e-29 0
vt 0.556777 1.1811 0
vt 0.556777 1.1811 0
vt -0.556777 1.1811 0
vt -0.556777 9.97401e-29 0
vt 16.1465 2.47925e-27 0
vt 17.2601 2.47925e-27 0
vt 17.2601 1.1811 0
vt 17.2601 1.1811 0
vt 16.1465 1.1811 0
vt 16.1465 2.47925e-27 0
vt 0.787402 0 0
vt 22.8347 0 0
vt 22.8347 1.1811 0
vt 22.8347 1.1811 0
vt 0.787402 1.1811 0
vt 0.787402 0 0
vt -19.5888 4.97803 0
vt -18.5906 5.60947 0
vt -19.1859 6.55053 0
vt -19.1859 6.55053 0
vt -20.1841 5.91909 0
vt -19.5888 4.97803 0
vt 22.0352 8.5671 0
vt 7.40597e-17 6.98022 0
vt 23.622 6.98022 0
vt 23.622 6.98022 0
vt 23.622 20.7598 0
vt 22.0352 8.5671 0
vt 23.622 20.7598 0
vt 22.0352 19.9603 0
vt 22.0352 8.5671 0
vt 23.622 20.7598 0
vt 1.58688 19.9603 0
vt 22.0352 19.9603 0
vt 7.40597e-17 6.98022 0
vt 22.0352 8.5671 0
vt 1.58688 8.5671 0
vt 1.58688 8.5671 0
vt 1.02889e-16 20.7598 0
vt 7.40597e-17 6.98022 0
vt 1.58688 8.5671 0
vt 1.58688 19.9603 0
vt 1.02889e-16 20.7598 0
vt 1.58688 19.9603 0
vt 23.622 20.7598 0
vt 1.02889e-16 20.7598 0
vt 23.622 20.7598 0
vt 22.8347 21.5471 0
vt 1.02889e-16 20.7598 0
vt 22.8347 21.5471 0
vt 0.787402 21.5471 0
vt 1.02889e-16 20.7598 0
vt -0.787402 0 0
vt -0.787402 1.1811 0
vt -14.4542 1.1811 0
vt -14.4542 1.1811 0
vt -15.2197 0 0
vt -0.787402 0 0
vt -14.4542 1.1811 0
vt -20.0807 13.7595 0
vt -15.2197 0 0
vt -20.0807 13.7595 0
vt -21.1589 13.2773 0
vt -15.2197 0 0
vt 10.2561 -7.56537 0
vt 9.66079 -8.50643 0
vt 10.6589 -9.13787 0
vt 10.6589 -9.13787 0
vt 11.2543 -8.19681 0
vt 10.2561 -7.56537 0
vt -0.787402 -13.8931 0
vt -0.787402 -12.712 0
vt -22.8347 -12.712 0
vt -22.8347 -12.712 0
vt -22.8347 -13.8931 0
vt -0.787402 -13.8931 0
vt -23.622 6.21467 0
vt 1.05042e-17 6.21467 0
vt 1.46033e-17 20.7598 0
vt 1.46033e-17 20.7598 0
vt -23.622 20.7598 0
vt -23.622 6.21467 0
vt 1.46033e-17 20.7598 0
vt -0.787402 21.5471 0
vt -23.622 20.7598 0
vt -0.787402 21.5471 0
vt -22.8347 21.5471 0
vt -23.622 20.7598 0
vt 7.14813 1.69929 0
vt 2.296 6.10756 0
vt 0.787402 -2.72779e-17 0
vt 0.787402 -2.72779e-17 0
vt 22.8347 -2.72779e-17 0
vt 7.14813 1.69929 0
vt 22.8347 -2.72779e-17 0
vt 11.4788 1.69929 0
vt 7.14813 1.69929 0
vt 22.8347 -2.72779e-17 0
vt 11.4788 4.06752 0
vt 11.4788 1.69929 0
vt 22.8347 -2.72779e-17 0
vt 15.8734 6.10756 0
vt 11.4788 4.06752 0
vt 22.8347 -2.72779e-17 0
vt 17.0364 6.10756 0
vt 15.8734 6.10756 0
vt 17.0364 6.10756 0
vt 15.8734 12.3789 0
vt 15.8734 6.10756 0
vt 22.8347 -2.72779e-17 0
vt 21.6814 6.10756 0
vt 17.0364 6.10756 0
vt 22.8347 -2.72779e-17 0
vt 21.6814 12.3789 0
vt 21.6814 6.10756 0
vt 0.787402 -2.72779e-17 0
vt 2.296 6.10756 0
vt 2.296 12.3789 0
vt 0.787402 -2.72779e-17 0
vt 2.296 12.3789 0
vt 1.15004e-17 14.4542 0
vt 1.15004e-17 14.4542 0
vt 1.15004e-17 0.787402 0
vt 0.787402 -2.72779e-17 0
vt 2.296 12.3789 0
vt 23.622 14.4542 0
vt 1.15004e-17 14.4542 0
vt 2.296 12.3789 0
vt 15.8734 12.3789 0
vt 23.622 14.4542 0
vt 21.6814 12.3789 0
vt 22.8347 -2.72779e-17 0
vt 23.622 14.4542 0
vt 15.8734 12.3789 0
vt 17.0364 12.3789 0
vt 23.622 14.4542 0
vt 15.8734 12.3789 0
vt 17.0364 6.10756 0
vt 17.0364 12.3789 0
vt 17.0364 12.3789 0
vt 21.6814 12.3789 0
vt 23.622 14.4542 0
vt 22.8347 -2.72779e-17 0
vt 23.622 0.787402 0
vt 23.622 14.4542 0
vt 7.14813 4.06752 0
vt 11.4788 4.06752 0
vt 15.8734 6.10756 0
vt 7.14813 4.06752 0
vt 15.8734 6.10756 0
vt 2.296 6.10756 0
vt 2.296 6.10756 0
vt 7.14813 1.69929 0
vt 7.14813 4.06752 0
vt 0.787402 1.1811 0
vt 0.787402 0 0
vt 15.2197 0 0
vt 15.2197 0 0
vt 14.4542 1.1811 0
vt 0.787402 1.1811 0
vt 15.2197 0 0
vt 20.0807 13.7595 0
vt 14.4542 1.1811 0
vt 15.2197 0 0
vt 21.1589 13.2773 0
vt 20.0807 13.7595 0
vt 1.58688 8.5671 0
vt 22.0352 8.5671 0
vt 22.0352 19.9603 0
vt 22.0352 19.9603 0
vt 1.58688 19.9603 0
vt 1.58688 8.5671 0
vt 7.14813 4.06752 0
vt 7.14813 1.69929 0
vt 11.4788 1.69929 0
vt 11.4788 1.69929 0
vt 11.4788 4.06752 0
vt 7.14813 4.06752 0
vt 2.296 12.3789 0
vt 2.296 6.10756 0
vt 15.8734 6.10756 0
vt 15.8734 6.10756 0
vt 15.8734 12.3789 0
vt 2.296 12.3789 0
vt 17.0364 12.3789 0
vt 17.0364 6.10756 0
vt 21.6814 6.10756 0
vt 21.6814 6.10756 0
vt 21.6814 12.3789 0
vt 17.0364 12.3789 0

# 204 vertex normals
vn 0 -0.01 0
vn 0 -0.01 0
vn 0 -0.01 0
vn 0 -0.01 0
vn 0 -0.01 0
vn 0 -0.01 0
vn 0 -0.01 0
vn 0 -0.01 0
vn 0 -0.01 0
vn 0 -0.01 0
vn 0 -0.01 0
vn 0 -0.01 0
vn 0.00707107 0 -0.00707107
vn 0.00707107 0 -0.00707107
vn 0.00707107 0 -0.00707107
vn 0.00707107 0 -0.00707107
vn 0.00707107 0 -0.00707107
vn 0.00707107 0 -0.00707107
vn -0.00707107 0 -0.00707107
vn -0.00707107 0 -0.00707107
vn -0.00707107 0 -0.00707107
vn -0.00707107 0 -0.00707107
vn -0.00707107 0 -0.00707107
vn -0.00707107 0 -0.00707107
vn 0 0 -0.01
vn 0 0 -0.01
vn 0 0 -0.01
vn 0 0 -0.01
vn 0 0 -0.01
vn 0 0 -0.01
vn 0.00707107 0.00645471 0.00288733
vn 0.00707107 0.00645471 0.00288733
vn 0.00707107 0.00645471 0.00288733
vn 0.00707107 0.00645471 0.00288733
vn 0.00707107 0.00645471 0.00288733
vn 0.00707107 0.00645471 0.00288733
vn 0 0.0040833 -0.00912834
vn 0 0.0040833 -0.00912834
vn 0 0.0040833 -0.00912834
vn 0 0.0040833 -0.00912834
vn 0 0.0040833 -0.00912834
vn 0 0.0040833 -0.00912834
vn 0 0.0040833 -0.00912834
vn 0 0.0040833 -0.00912834
vn 0 0.0040833 -0.00912834
vn 0 0.0040833 -0.00912834
vn 0 0.0040833 -0.00912834
vn 0 0.0040833 -0.00912834
vn 0 0.0040833 -0.00912834
vn 0 0.0040833 -0.00912834
vn 0 0.0040833 -0.00912834
vn 0 0.0040833 -0.00912834
vn 0 0.0040833 -0.00912834
vn 0 0.0040833 -0.00912834
vn 0 0.0040833 -0.00912834
vn 0 0.0040833 -0.00912834
vn 0 0.0040833 -0.00912834
vn 0 0.0040833 -0.00912834
vn 0 0.0040833 -0.00912834
vn 0 0.0040833 -0.00912834
vn 0 0.0040833 -0.00912834
vn 0 0.0040833 -0.00912834
vn 0 0.0040833 -0.00912834
vn 0 0.0040833 -0.00912834
vn 0 0.0040833 -0.00912834
vn 0 0.0040833 -0.00912834
vn 0.01 0 0
vn 0.01 0 0
vn 0.01 0 0
vn 0.01 0 0
vn 0.01 0 0
vn 0.01 0 0
vn 0.01 0 0
vn 0.01 0 0
vn 0.01 0 0
vn 0.01 0 0
vn 0.01 0 0
vn 0.01 0 0
vn -0.00707107 0.00645471 0.00288733
vn -0.00707107 0.00645471 0.00288733
vn -0.00707107 0.00645471 0.00288733
vn -0.00707107 0.00645471 0.00288733
vn -0.00707107 0.00645471 0.00288733
vn -0.00707107 0.00645471 0.00288733
vn 0 0.00912834 0.0040833
vn 0 0.00912834 0.0040833
vn 0 0.00912834 0.0040833
vn 0 0.00912834 0.0040833
vn 0 0.00912834 0.0040833
vn 0 0.00912834 0.0040833
vn 0 -0.0040833 0.00912834
vn 0 -0.0040833 0.00912834
vn 0 -0.0040833 0.00912834
vn 0 -0.0040833 0.00912834
vn 0 -0.0040833 0.00912834
vn 0 -0.0040833 0.00912834
vn 0 -0.0040833 0.00912834
vn 0 -0.0040833 0.00912834
vn 0 -0.0040833 0.00912834
vn 0 -0.0040833 0.00912834
vn 0 -0.0040833 0.00912834
vn 0 -0.0040833 0.00912834
vn 0 0.01 0
vn 0 0.01 0
vn 0 0.01 0
vn 0 0.01 0
vn 0 0.01 0
vn 0 0.01 0
vn 0 0.01 0
vn 0 0.01 0
vn 0 0.01 0
vn 0 0.01 0
vn 0 0.01 0
vn 0 0.01 0
vn 0 0.01 0
vn 0 0.01 0
vn 0 0.01 0
vn 0 0.01 0
vn 0 0.01 0
vn 0 0.01 0
vn 0 0.01 0
vn 0 0.01 0
vn 0 0.01 0
vn 0 0.01 0
vn 0 0.01 0
vn 0 0.01 0
vn 0 0.01 0
vn 0 0.01 0
vn 0 0.01 0
vn 0 0.01 0
vn 0 0.01 0
vn 0 0.01 0
vn 0 0.01 0
vn 0 0.01 0
vn 0 0.01 0
vn 0 0.01 0
vn 0 0.01 0
vn 0 0.01 0
vn 0 0.01 0
vn 0 0.01 0
vn 0 0.01 0
vn 0 0.01 0
vn 0 0.01 0
vn 0 0.01 0
vn 0 0.01 0
vn 0 0.01 0
vn 0 0.01 0
vn 0 0.01 0
vn 0 0.01 0
vn 0 0.01 0
vn 0 0.01 0
vn 0 0.01 0
vn 0 0.01 0
vn 0 0.01 0
vn 0 0.01 0
vn 0 0.01 0
vn 0 0.01 0
vn 0 0.01 0
vn 0 0.01 0
vn 0 0.01 0
vn 0 0.01 0
vn 0 0.01 0
vn 0 0.01 0
vn 0 0.01 0
vn 0 0.01 0
vn 0 0.01 0
vn 0 0.01 0
vn 0 0.01 0
vn -0.01 0 0
vn -0.01 0 0
vn -0.01 0 0
vn -0.01 0 0
vn -0.01 0 0
vn -0.01 0 0
vn -0.01 0 0
vn -0.01 0 0
vn -0.01 0 0
vn -0.01 0 0
vn -0.01 0 0
vn -0.01 0 0
vn 0 0.0040833 -0.00912834
vn 0 0.0040833 -0.00912834
vn 0 0.0040833 -0.00912834
vn 0 0.0040833 -0.00912834
vn 0 0.0040833 -0.00912834
vn 0 0.0040833 -0.00912834
vn 0 0.01 0
vn 0 0.01 0
vn 0 0.01 0
vn 0 0.01 0
vn 0 0.01 0
vn 0 0.01 0
vn 0 0.01 0
vn 0 0.01 0
vn 0 0.01 0
vn 0 0.01 0
vn 0 0.01 0
vn 0 0.01 0
vn 0 0.01 0
vn 0 0.01 0
vn 0 0.01 0
vn 0 0.01 0
vn 0 0.01 0
vn 0 0.01 0

# Mesh 'undefined' with 60 faces
g undefined
usemtl Mat1
f  1/1/1 2/2/2 3/3/3
f  4/4/4 5/5/5 6/6/6
f  7/7/7 8/8/8 9/9/9
f  10/10/10 11/11/11 12/12/12
f  13/13/13 14/14/14 15/15/15
f  16/16/16 17/17/17 18/18/18
f  19/19/19 20/20/20 21/21/21
f  22/22/22 23/23/23 24/24/24
f  25/25/25 26/26/26 27/27/27
f  28/28/28 29/29/29 30/30/30
f  31/31/31 32/32/32 33/33/33
f  34/34/34 35/35/35 36/36/36
f  37/37/37 38/38/38 39/39/39
f  40/40/40 41/41/41 42/42/42
f  43/43/43 44/44/44 45/45/45
f  46/46/46 47/47/47 48/48/48
f  49/49/49 50/50/50 51/51/51
f  52/52/52 53/53/53 54/54/54
f  55/55/55 56/56/56 57/57/57
f  58/58/58 59/59/59 60/60/60
f  61/61/61 62/62/62 63/63/63
f  64/64/64 65/65/65 66/66/66
f  67/67/67 68/68/68 69/69/69
f  70/70/70 71/71/71 72/72/72
f  73/73/73 74/74/74 75/75/75
f  76/76/76 77/77/77 78/78/78
f  79/79/79 80/80/80 81/81/81
f  82/82/82 83/83/83 84/84/84
f  85/85/85 86/86/86 87/87/87
f  88/88/88 89/89/89 90/90/90
f  91/91/91 92/92/92 93/93/93
f  94/94/94 95/95/95 96/96/96
f  97/97/97 98/98/98 99/99/99
f  100/100/100 101/101/101 102/102/102
f  103/103/103 104/104/104 105/105/105
f  106/106/106 107/107/107 108/108/108
f  109/109/109 110/110/110 111/111/111
f  112/112/112 113/113/113 114/114/114
f  115/115/115 116/116/116 117/117/117
f  118/118/118 119/119/119 120/120/120
f  121/121/121 122/122/122 123/123/123
f  124/124/124 125/125/125 126/126/126
f  127/127/127 128/128/128 129/129/129
f  130/130/130 131/131/131 132/132/132
f  133/133/133 134/134/134 135/135/135
f  136/136/136 137/137/137 138/138/138
f  139/139/139 140/140/140 141/141/141
f  142/142/142 143/143/143 144/144/144
f  145/145/145 146/146/146 147/147/147
f  148/148/148 149/149/149 150/150/150
f  151/151/151 152/152/152 153/153/153
f  154/154/154 155/155/155 156/156/156
f  157/157/157 158/158/158 159/159/159
f  160/160/160 161/161/161 162/162/162
f  163/163/163 164/164/164 165/165/165
f  166/166/166 167/167/167 168/168/168
f  169/169/169 170/170/170 171/171/171
f  172/172/172 173/173/173 174/174/174
f  175/175/175 176/176/176 177/177/177
f  178/178/178 179/179/179 180/180/180

# Mesh 'undefined' with 2 faces
g undefined
usemtl Mat2
f  181/181/181 182/182/182 183/183/183
f  184/184/184 185/185/185 186/186/186

# Mesh 'undefined' with 6 faces
g undefined
usemtl Mat3
f  187/187/187 188/188/188 189/189/189
f  190/190/190 191/191/191 192/192/192
f  193/193/193 194/194/194 195/195/195
f  196/196/196 197/197/197 198/198/198
f  199/199/199 200/200/200 201/201/201
f  202/202/202 203/203/203 204/204/204

